# xmcd
#
# Track frame offsets: 
#        150
#        7542
#        34741
#        46633
#        61644
#        69115
#        75228
#        94213
#        103724
#        127071
#        132951
#        138538
#        158926
#        166394
#        184017
#        193680
#        198685
#        221518
#        232947
#        254082
#        261959
#        268234
#        296751
#        304701
#        318337
#
# Disc length: 4329 seconds
#
# Revision: 0
# Processed by: cddbd v1.5.2PL0 Copyright (c) Steve Scherf et al.
# Submitted via: ExactAudioCopy v1.0b1
#
DISCID=6110e719
DTITLE=Hank Williams - The Complete Mother's Best Recordings CD 11
DYEAR=2010
DGENRE=Country
TTITLE0=Introduction
TTITLE1=I Dreamed about Moma Last Night
TTITLE2=Jerry Rivers and the Drifting Cowboys: Black Mountain Rag
TTITLE3=I Heard My Savior Call
TTITLE4=Closing
TTITLE5=Introduction
TTITLE6=Low and Lonely
TTITLE7=Big Bill Lister and the Drifting Cowboys: Foolish Questions
TTITLE8=The Funeral,Steal Away
TTITLE9=Closing
TTITLE10=Introduction
TTITLE11=Mind Your Own Business
TTITLE12=Jerry Rivers and the Drifting Cowboys: Old Joe Clark
TTITLE13=I Dreamed about Mom Last Night
TTITLE14=Closing
TTITLE15=Introduction
TTITLE16=I Just Don’t Like this Kind of Livin’
TTITLE17=Jerry Rivers and the Drifting Cowboys: Tennessee Wagner
TTITLE18=The Pale Horse and His Rider (Hank’s only known solo recordin
TTITLE18=g!)
TTITLE19=Closing
TTITLE20=Introduction
TTITLE21=My Sweet Love Ain’t Around
TTITLE22=Jerry Rivers and the Drifting Cowboys: Fire on the Mountain
TTITLE23=I Saw the Light
TTITLE24=Closing
EXTD=
EXTT0=
EXTT1=
EXTT2=
EXTT3=
EXTT4=
EXTT5=
EXTT6=
EXTT7=
EXTT8=
EXTT9=
EXTT10=
EXTT11=
EXTT12=
EXTT13=
EXTT14=
EXTT15=
EXTT16=
EXTT17=
EXTT18=
EXTT19=
EXTT20=
EXTT21=
EXTT22=
EXTT23=
EXTT24=
PLAYORDER=
